{"accessors" : [{"bufferView" : 0, "byteOffset" : 0, "componentType" : 5123, "count" : 230736, "type" : "SCALAR", "max" : [45766], "min" : [0]}, {"bufferView" : 1, "byteOffset" : 0, "componentType" : 5126, "count" : 45767, "type" : "VEC3", "max" : [0.14097461104393, 0.0174965895712376, 0.00675307959318161], "min" : [0.0512961000204086, -0.0182614903897047, -8.3699997048825E-06]}, {"bufferView" : 1, "byteOffset" : 12, "componentType" : 5126, "count" : 45767, "type" : "VEC3", "max" : [1.00000441074371, 1.00000441074371, 1.00000441074371], "min" : [-1.00000441074371, -1.00000441074371, -1.00000441074371]}, {"bufferView" : 1, "byteOffset" : 24, "componentType" : 5126, "count" : 45767, "type" : "VEC2", "max" : [1, 1], "min" : [0, 0]}], "asset" : {"generator" : "Aspose.3D 20.2.1", "version" : "2.0"}, "buffers" : [{"uri" : "buffer.bin", "byteLength" : 1926024}], "bufferViews" : [{"buffer" : 0, "byteOffset" : 0, "byteLength" : 461472, "target" : 34963}, {"buffer" : 0, "byteOffset" : 461476, "byteLength" : 1464544, "byteStride" : 32, "target" : 34962}], "materials" : [{"pbrMetallicRoughness" : {"baseColorFactor" : [0.800000011920929, 0.800000011920929, 0.800000011920929, 1], "metallicFactor" : 0.400000005960464, "roughnessFactor" : 0.272165536880493}, "emissiveFactor" : [0, 0, 0], "alphaMode" : "OPAQUE", "doubleSided" : false}], "meshes" : [{"primitives" : [{"attributes" : {"POSITION" : 1, "NORMAL" : 2, "TEXCOORD_0" : 3}, "indices" : 0, "material" : 0, "mode" : 4}]}], "nodes" : [{"matrix" : [100, 0, 0, 0, 0, 99.9999999999987, 1.62920670732092E-05, 0, 0, -1.62920670732092E-05, 99.9999999999987, 0, -9.2380542755127, 0, 0, 1], "mesh" : 0, "name" : "LOGOWTF3D"}, {"children" : [0], "name" : "RootNode"}], "scene" : 0, "scenes" : [{"nodes" : [1]}]}