{
    "asset" : {
        "generator" : "Khronos glTF Blender I/O v0.9.36",
        "version" : "2.0"
    },
    "scene" : 0,
    "scenes" : [
        {
            "extras" : {
                "glTF2ExportSettings" : {
                    "export_all_influences" : 1,
                    "export_apply" : 1,
                    "export_draco_mesh_compression_enable" : 0,
                    "export_extras" : 1,
                    "export_format" : "GLTF_EMBEDDED",
                    "export_frame_range" : 0,
                    "export_morph_tangent" : 1,
                    "export_tangents" : 1,
                    "export_yup" : 1
                }
            },
            "name" : "Scene",
            "nodes" : [
                0,
                1,
                2,
                3
            ]
        }
    ],
    "nodes" : [
        {
            "name" : "Text",
            "translation" : [
                0,
                0,
                2.3256473541259766
            ]
        },
        {
            "name" : "Text.001",
            "scale" : [
                0.699999988079071,
                0.699999988079071,
                0.699999988079071
            ],
            "translation" : [
                0,
                0,
                3.851170063018799
            ]
        },
        {
            "name" : "Empty",
            "scale" : [
                0.5,
                0.5,
                0.5
            ],
            "translation" : [
                -5.668622970581055,
                2,
                0.20000000298023224
            ]
        },
        {
            "name" : "Empty.001",
            "scale" : [
                0.5,
                0.5,
                0.5
            ],
            "translation" : [
                5.625439167022705,
                2,
                0.20000000298023224
            ]
        }
    ],
    "animations" : [
        {
            "channels" : [
                {
                    "sampler" : 0,
                    "target" : {
                        "node" : 2,
                        "path" : "rotation"
                    }
                }
            ],
            "name" : "EmptyAction",
            "samplers" : [
                {
                    "input" : 0,
                    "interpolation" : "LINEAR",
                    "output" : 1
                }
            ]
        },
        {
            "channels" : [
                {
                    "sampler" : 0,
                    "target" : {
                        "node" : 3,
                        "path" : "rotation"
                    }
                }
            ],
            "name" : "Empty.001Action",
            "samplers" : [
                {
                    "input" : 0,
                    "interpolation" : "LINEAR",
                    "output" : 2
                }
            ]
        }
    ],
    "accessors" : [
        {
            "bufferView" : 0,
            "componentType" : 5126,
            "count" : 61,
            "max" : [
                2.5
            ],
            "min" : [
                0
            ],
            "type" : "SCALAR"
        },
        {
            "bufferView" : 1,
            "componentType" : 5126,
            "count" : 61,
            "type" : "VEC4"
        },
        {
            "bufferView" : 2,
            "componentType" : 5126,
            "count" : 61,
            "type" : "VEC4"
        }
    ],
    "bufferViews" : [
        {
            "buffer" : 0,
            "byteLength" : 244,
            "byteOffset" : 0
        },
        {
            "buffer" : 0,
            "byteLength" : 976,
            "byteOffset" : 244
        },
        {
            "buffer" : 0,
            "byteLength" : 976,
            "byteOffset" : 1220
        }
    ],
    "buffers" : [
        {
            "byteLength" : 2196,
            "uri" : "data:application/octet-stream;base64,"
        }
    ]
}
